{
  "accessors": [
    {
      "bufferView": 1,
      "componentType": 5126,
      "count": 4396,
      "max": [
        -106.0,
        -0.0,
        99.5
      ],
      "min": [
        -406.0,
        -215.0,
        -115.5
      ],
      "type": "VEC3"
    },
    {
      "bufferView": 1,
      "byteOffset": 52752,
      "componentType": 5126,
      "count": 4396,
      "max": [
        1.0,
        1.0,
        1.0
      ],
      "min": [
        -1.0,
        -1.0,
        -1.0
      ],
      "type": "VEC3"
    },
    {
      "bufferView": 0,
      "componentType": 5125,
      "count": 22350,
      "type": "SCALAR"
    },
    {
      "bufferView": 1,
      "byteOffset": 105504,
      "componentType": 5126,
      "count": 15529,
      "max": [
        499.0,
        -0.0,
        107.49800109863281
      ],
      "min": [
        410.0,
        -215.0,
        -107.5
      ],
      "type": "VEC3"
    },
    {
      "bufferView": 1,
      "byteOffset": 291852,
      "componentType": 5126,
      "count": 15529,
      "max": [
        1.0,
        1.0,
        1.0
      ],
      "min": [
        -1.0,
        -1.0,
        -1.0
      ],
      "type": "VEC3"
    },
    {
      "bufferView": 0,
      "byteOffset": 89400,
      "componentType": 5125,
      "count": 89502,
      "type": "SCALAR"
    },
    {
      "bufferView": 1,
      "byteOffset": 478200,
      "componentType": 5126,
      "count": 61622,
      "max": [
        -107.46199798583984,
        -4.126399993896484,
        95.8135986328125
      ],
      "min": [
        -404.1730041503906,
        -214.0540008544922,
        -23.73699951171875
      ],
      "type": "VEC3"
    },
    {
      "bufferView": 1,
      "byteOffset": 1217664,
      "componentType": 5126,
      "count": 61622,
      "max": [
        1.0,
        1.0,
        0.9999993443489075
      ],
      "min": [
        -1.0,
        -1.0,
        -0.9999994039535522
      ],
      "type": "VEC3"
    },
    {
      "bufferView": 0,
      "byteOffset": 447408,
      "componentType": 5125,
      "count": 362382,
      "type": "SCALAR"
    }
  ],
  "asset": {
    "extras": {
      "author": "Xenoreptire (https://sketchfab.com/xenoreptire__)",
      "license": "CC-BY-4.0 (http://creativecommons.org/licenses/by/4.0/)",
      "source": "https://sketchfab.com/3d-models/macbook-pro-free-6b0e411e4792407d995c35ce55cc0589",
      "title": "Macbook Pro [+FREE]"
    },
    "generator": "Sketchfab-15.5.0",
    "version": "2.0"
  },
  "bufferViews": [
    {
      "buffer": 0,
      "byteLength": 1896936,
      "name": "floatBufferViews",
      "target": 34963
    },
    {
      "buffer": 0,
      "byteLength": 1957128,
      "byteOffset": 1896936,
      "byteStride": 12,
      "name": "floatBufferViews",
      "target": 34962
    }
  ],
  "buffers": [
    {
      "byteLength": 3854064,
      "uri": "scene.bin"
    }
  ],
  "materials": [
    {
      "doubleSided": true,
      "name": "color_12568524",
      "pbrMetallicRoughness": {
        "baseColorFactor": [
          0.74902,
          0.780392,
          0.8,
          1.0
        ],
        "metallicFactor": 0.0
      }
    },
    {
      "doubleSided": true,
      "name": "color_16448250",
      "pbrMetallicRoughness": {
        "baseColorFactor": [
          0.980392,
          0.980392,
          0.980392,
          1.0
        ],
        "metallicFactor": 0.0
      }
    },
    {
      "doubleSided": true,
      "name": "color_2829873",
      "pbrMetallicRoughness": {
        "baseColorFactor": [
          0.168627,
          0.180392,
          0.192157,
          1.0
        ],
        "metallicFactor": 0.0
      }
    }
  ],
  "meshes": [
    {
      "name": "Object_0",
      "primitives": [
        {
          "attributes": {
            "NORMAL": 1,
            "POSITION": 0
          },
          "indices": 2,
          "material": 0,
          "mode": 4
        }
      ]
    },
    {
      "name": "Object_1",
      "primitives": [
        {
          "attributes": {
            "NORMAL": 4,
            "POSITION": 3
          },
          "indices": 5,
          "material": 1,
          "mode": 4
        }
      ]
    },
    {
      "name": "Object_2",
      "primitives": [
        {
          "attributes": {
            "NORMAL": 7,
            "POSITION": 6
          },
          "indices": 8,
          "material": 2,
          "mode": 4
        }
      ]
    }
  ],
  "nodes": [
    {
      "children": [
        1
      ],
      "matrix": [
        0.0026315790601074696,
        0.0,
        0.0,
        0.0,
        0.0,
        -0.0026315790601074696,
        0.0,
        0.0,
        0.0,
        0.0,
        -0.0026315790601074696,
        0.0,
        0.0,
        0.0,
        0.0,
        1.0
      ],
      "name": "Sketchfab_model"
    },
    {
      "children": [
        2,
        3,
        4
      ],
      "name": "tinker.obj.cleaner.materialmerger.gles"
    },
    {
      "mesh": 0,
      "name": "Object_2"
    },
    {
      "mesh": 1,
      "name": "Object_3"
    },
    {
      "mesh": 2,
      "name": "Object_4"
    }
  ],
  "scene": 0,
  "scenes": [
    {
      "name": "Sketchfab_Scene",
      "nodes": [
        0
      ]
    }
  ]
}
